<svg width="158" height="32" viewBox="0 0 158 32" fill="none" xmlns="http://www.w3.org/2000/svg">
<g clip-path="url(#clip0_1288_1608)">
<path d="M29.4548 0.0252075H25.4233V26.4063H29.4548V0.0252075Z" fill="white"/>
<path d="M123.792 6.50079C121.549 6.50079 119.382 7.2315 117.618 8.59213V7.05512H113.587V31.9496H117.618V24.8189C122.103 28.2205 128.503 27.3638 131.93 22.8787C135.357 18.3937 134.475 11.9937 129.99 8.56693C128.201 7.2315 126.009 6.50079 123.792 6.50079ZM123.792 22.8787C120.39 22.8787 117.618 20.1071 117.618 16.7055C117.618 13.3039 120.39 10.5323 123.792 10.5323C127.193 10.5323 129.965 13.3039 129.965 16.7055C129.965 20.1071 127.193 22.8787 123.792 22.8787Z" fill="white"/>
<path d="M109.379 7.05511H105.348V26.4063H109.379V7.05511Z" fill="white"/>
<path d="M17.0579 7.05512V8.99527C12.7996 5.29134 6.34923 5.77008 2.67048 10.0283C-1.00826 14.2866 -0.554714 20.737 3.70355 24.4157C7.53347 27.7417 13.228 27.7417 17.0579 24.4157V26.9102H21.0894V7.05512H17.0579ZM10.3807 22.8787C6.97915 22.8787 4.20749 20.1071 4.20749 16.7055C4.20749 13.3039 6.97915 10.5323 10.3807 10.5323C13.7823 10.5323 16.554 13.3039 16.554 16.7055C16.554 20.1071 13.7823 22.8787 10.3807 22.8787Z" fill="white"/>
<path d="M91.8423 10.8094L91.9431 10.8346L91.8423 10.8094Z" fill="white"/>
<path d="M75.6408 19.6536C74.5573 21.6693 72.466 22.9291 70.1982 22.9291H70.0723C68.6612 22.904 67.3006 22.4 66.2171 21.4677L76.2707 15.6725L79.899 13.5559C78.1352 8.21419 72.3904 5.29136 67.0234 7.02994C61.6565 8.76852 58.7589 14.5386 60.4975 19.9055C62.236 25.2725 68.0061 28.1701 73.373 26.4315C76.5478 25.3984 79.0171 22.8536 79.9746 19.6536H75.6408ZM64.025 16.7559C64.025 13.3543 66.7967 10.5827 70.1982 10.5827C71.71 10.5827 73.1715 11.137 74.3053 12.1449L64.151 18.0158C64.0754 17.5874 64.025 17.1843 64.025 16.7559Z" fill="white"/>
<path d="M153.045 19.578C151.987 21.5937 149.896 22.8535 147.603 22.8787H147.477C146.066 22.8535 144.705 22.3496 143.622 21.4425L153.65 15.5969L157.278 13.4803C155.515 8.13859 149.719 5.24095 144.378 7.00473C139.036 8.76851 136.138 14.5638 137.902 19.9055C139.666 25.2472 145.461 28.1449 150.803 26.3811C153.978 25.3228 156.447 22.778 157.379 19.5528L153.045 19.578ZM147.552 10.5323C149.064 10.5323 150.526 11.0866 151.659 12.0945L141.53 17.9906C141.429 17.5874 141.404 17.1591 141.404 16.7307C141.404 13.3039 144.151 10.5323 147.552 10.5323Z" fill="white"/>
<path d="M93.4043 22.6016L93.5051 22.5764L93.4043 22.6016Z" fill="#2D0B96"/>
<path d="M44.5224 22.5512V26.5827C43.7665 26.8095 42.9854 26.9102 42.2043 26.9102C37.5681 26.9102 33.7886 23.1307 33.7886 18.4945V0.0252075H37.8201V2.4945H43.9177V6.526H37.8201V18.4945C37.8201 20.8126 39.6342 22.7276 41.902 22.8788C42.0027 22.8788 42.0783 22.8788 42.1791 22.8788C42.935 22.8788 43.6909 22.778 44.4216 22.5764C44.472 22.5512 44.4972 22.5512 44.5224 22.5512Z" fill="white"/>
<path d="M58.3808 6.04725V9.90237C58.0029 9.85198 57.6501 9.85198 57.3225 9.85198C53.9966 9.85198 51.9304 11.389 51.9304 15.9496V26.4063H47.8989V7.05513H51.9304V10.0536C52.4596 8.23938 53.3162 7.20631 54.2485 6.60158C56.1887 5.36694 58.3808 6.04725 58.3808 6.04725Z" fill="white"/>
<path d="M97.4861 19.6032H101.82C100.837 22.9543 98.1664 25.6 94.7901 26.5323C94.7145 26.5575 94.6137 26.5827 94.5381 26.6079C94.4625 26.6331 94.4121 26.6331 94.3365 26.6583C94.1853 26.6835 94.0341 26.7339 93.8578 26.7591C93.7822 26.7591 93.7318 26.7843 93.6562 26.7843C93.5806 26.8095 93.505 26.8095 93.4294 26.8095C93.3286 26.8347 93.2027 26.8347 93.1019 26.8598C92.9003 26.885 92.6987 26.885 92.4971 26.9102C92.4719 26.9102 92.4719 26.9102 92.4468 26.9102C92.3964 26.9102 92.346 26.9102 92.3208 26.9102C92.22 26.9102 92.1444 26.9102 92.0436 26.9102C86.3995 26.9102 81.8389 22.3496 81.8389 16.7055C81.8389 11.0614 86.3995 6.50079 92.0436 6.50079C92.1444 6.50079 92.22 6.50079 92.3208 6.50079C92.3712 6.50079 92.4216 6.50079 92.4468 6.50079C92.4719 6.50079 92.4719 6.50079 92.4971 6.50079C92.6987 6.50079 92.9003 6.52599 93.1019 6.55119C93.2027 6.55119 93.3286 6.57638 93.4294 6.60158C93.505 6.60158 93.5806 6.62678 93.6562 6.62678C93.7318 6.62678 93.7822 6.65197 93.8578 6.65197C94.0089 6.67717 94.1601 6.70237 94.3365 6.75276C94.4121 6.75276 94.4625 6.77796 94.5381 6.80315C94.6137 6.82835 94.7145 6.85355 94.7901 6.87875C98.242 7.83623 100.963 10.5827 101.896 14.0598H97.6121C96.9066 12.548 95.5712 11.3638 93.9838 10.8347C93.9586 10.8095 93.9082 10.8095 93.883 10.8095C93.8326 10.7843 93.7822 10.7843 93.7318 10.7591C93.6562 10.7339 93.5554 10.7087 93.4798 10.6835C93.4042 10.6583 93.3286 10.6583 93.2782 10.6331C93.2027 10.6079 93.1271 10.6079 93.0515 10.6079C92.9759 10.5827 92.9003 10.5827 92.8247 10.5827H92.7995C92.7239 10.5827 92.6735 10.5575 92.5979 10.5575C92.5223 10.5575 92.4467 10.5575 92.3711 10.5323C92.2704 10.5323 92.1696 10.5323 92.094 10.5323C88.6924 10.5323 85.9208 13.3039 85.9208 16.7055C85.9208 20.1071 88.6924 22.8787 92.094 22.8787C92.1948 22.8787 92.2956 22.8787 92.3711 22.8787C92.4467 22.8787 92.5223 22.8787 92.5979 22.8535C92.6735 22.8535 92.7491 22.8284 92.7995 22.8284H92.8247C92.9003 22.8284 92.9759 22.8032 93.0515 22.8032C93.1271 22.8032 93.2027 22.778 93.2782 22.778C93.3538 22.7528 93.4294 22.7528 93.4798 22.7276C93.5554 22.7024 93.6562 22.6772 93.7318 22.652C93.7822 22.6268 93.8326 22.6268 93.883 22.6016C93.9082 22.6016 93.9586 22.5764 93.9838 22.5764C95.4956 22.0473 96.7554 20.989 97.4861 19.6032Z" fill="white"/>
</g>
<defs>
<clipPath id="clip0_1288_1608">
<rect width="157.48" height="32" fill="white" transform="translate(-0.000488281)"/>
</clipPath>
</defs>
</svg>
